<svg width="32" height="31" viewBox="0 0 32 31" fill="none" xmlns="http://www.w3.org/2000/svg">
<rect width="32" height="31" rx="15.5" fill="black"/>
<path d="M22.5902 10.6714C22.3132 10.2775 21.921 9.97622 21.4559 9.80107C20.4462 9.41992 19.5779 9.1653 18.801 9.02179C18.256 8.92148 17.7163 9.17379 17.4569 9.64908L17.3922 9.7679C16.8168 9.7081 16.2059 9.68804 15.5101 9.70463C14.7967 9.68843 14.1836 9.7081 13.6075 9.7679L13.5432 9.64908C13.2838 9.17379 12.7433 8.92187 12.1995 9.02217C11.4226 9.1653 10.5538 9.41992 9.54457 9.80146C9.07988 9.97661 8.68773 10.2775 8.41031 10.6718C6.47576 13.4228 5.71768 16.3903 6.09303 19.7443C6.10615 19.862 6.17581 19.9673 6.28194 20.0302C7.77024 20.9136 9.05817 21.5185 10.335 21.9344C10.869 22.11 11.4611 21.9136 11.7762 21.4603L12.338 20.6498C11.8905 20.4908 11.4537 20.3025 11.0349 20.0776C10.8386 19.9723 10.7702 19.7366 10.8821 19.5518C10.9939 19.3662 11.2443 19.301 11.441 19.4079C12.6871 20.0769 14.0959 20.4306 15.515 20.4306C16.934 20.4306 18.3428 20.0769 19.589 19.4079C19.7853 19.301 20.0356 19.3662 20.1479 19.5518C20.2598 19.7366 20.1913 19.9723 19.9951 20.0776C19.5623 20.3103 19.1099 20.5039 18.6465 20.6656L19.2247 21.4765C19.4628 21.8102 19.8557 22 20.2606 22C20.3925 22 20.5257 21.9796 20.6552 21.9379C21.9358 21.5216 23.2261 20.9159 24.7177 20.0306C24.8238 19.9677 24.8935 19.862 24.9066 19.7447C25.2828 16.3903 24.5247 13.4224 22.5902 10.6714ZM12.8826 17.3582C12.0934 17.3582 11.4439 16.5755 11.4439 15.6241C11.4439 14.6728 12.0934 13.89 12.8826 13.89C13.6718 13.89 14.3213 14.6728 14.3213 15.6241C14.3213 16.5755 13.6718 17.3582 12.8826 17.3582ZM18.2068 17.3482C17.425 17.3482 16.7816 16.5608 16.7816 15.6037C16.7816 14.6465 17.425 13.8592 18.2068 13.8592C18.9887 13.8592 19.632 14.6465 19.632 15.6037C19.632 16.5608 18.9887 17.3482 18.2068 17.3482Z" fill="white"/>
</svg>
