<svg xmlns="http://www.w3.org/2000/svg" width="32" height="31" fill="none" viewBox="0 0 32 31"><rect width="32" height="31" fill="#000" rx="15.5"/><g clip-path="url(#clip0_670_6596)"><path stroke="#fff" stroke-linecap="round" stroke-linejoin="round" stroke-width="2" d="M14.4999 16.75C14.822 17.1806 15.2329 17.5369 15.7048 17.7947C16.1767 18.0525 16.6985 18.2058 17.2349 18.2442C17.7713 18.2826 18.3096 18.2053 18.8134 18.0173C19.3172 17.8294 19.7747 17.5353 20.1549 17.155L22.4049 14.905C23.088 14.1977 23.466 13.2505 23.4574 12.2672C23.4489 11.284 23.0545 10.3434 22.3592 9.64815C21.6639 8.95287 20.7234 8.55849 19.7402 8.54995C18.7569 8.5414 17.8097 8.91938 17.1024 9.60247L15.8124 10.885M17.4999 15.25C17.1778 14.8194 16.7669 14.4631 16.295 14.2053C15.8231 13.9475 15.3013 13.7941 14.7649 13.7557C14.2286 13.7173 13.6902 13.7947 13.1864 13.9826C12.6826 14.1706 12.2251 14.4647 11.8449 14.845L9.59491 17.095C8.91181 17.8022 8.53383 18.7495 8.54238 19.7327C8.55092 20.716 8.94531 21.6565 9.64059 22.3518C10.3359 23.0471 11.2764 23.4415 12.2597 23.45C13.2429 23.4585 14.1901 23.0806 14.8974 22.3975L16.1799 21.115"/></g><defs><clipPath id="clip0_670_6596"><rect width="18" height="18" fill="#fff" transform="translate(7 7)"/></clipPath></defs></svg>