<svg xmlns="http://www.w3.org/2000/svg" width="157" height="57" fill="none" viewBox="0 0 157 57"><g filter="url(#filter0_d_290_10558)"><rect width="153" height="52" x="2" y="1.5" fill="#93F" rx="26"/><path fill="#fff" d="M28.276 20.06C28.8653 20.06 29.4 20.128 29.88 20.264C30.36 20.3973 30.7693 20.5893 31.108 20.84C31.4493 21.0907 31.712 21.3947 31.896 21.752C32.08 22.1093 32.172 22.5107 32.172 22.956C32.172 23.316 32.1133 23.648 31.996 23.952C31.8787 24.2533 31.7147 24.5187 31.504 24.748C31.296 24.9747 31.048 25.16 30.76 25.304C30.472 25.448 30.1573 25.54 29.816 25.58C30.2293 25.6173 30.6093 25.7133 30.956 25.868C31.3027 26.0227 31.6013 26.224 31.852 26.472C32.1053 26.72 32.3027 27.0093 32.444 27.34C32.5853 27.668 32.656 28.028 32.656 28.42C32.656 28.892 32.552 29.3173 32.344 29.696C32.1387 30.0747 31.8493 30.3987 31.476 30.668C31.1027 30.9347 30.656 31.14 30.136 31.284C29.616 31.428 29.0427 31.5 28.416 31.5H22.552V20.06H28.276ZM28.016 24.816C28.264 24.816 28.4893 24.784 28.692 24.72C28.8973 24.656 29.072 24.5627 29.216 24.44C29.36 24.3173 29.4707 24.1693 29.548 23.996C29.628 23.82 29.668 23.6227 29.668 23.404C29.668 23.1907 29.6293 23.0027 29.552 22.84C29.4773 22.6747 29.3693 22.536 29.228 22.424C29.0867 22.312 28.9133 22.228 28.708 22.172C28.5027 22.1133 28.2707 22.084 28.012 22.084H25.08V24.816H28.016ZM28.236 29.476C28.868 29.476 29.3413 29.3627 29.656 29.136C29.9707 28.9067 30.128 28.5507 30.128 28.068C30.128 27.588 29.9707 27.2347 29.656 27.008C29.3413 26.7787 28.8693 26.664 28.24 26.664H25.08V29.476H28.236ZM39.4375 22.68H41.8335V31.5H39.4375V28.848C39.3442 29.3147 39.2068 29.728 39.0255 30.088C38.8442 30.448 38.6228 30.7507 38.3615 30.996C38.1002 31.2387 37.7988 31.4227 37.4575 31.548C37.1188 31.676 36.7455 31.74 36.3375 31.74C35.8628 31.74 35.4428 31.6547 35.0775 31.484C34.7148 31.3133 34.4095 31.0613 34.1615 30.728C33.9135 30.3947 33.7255 29.984 33.5975 29.496C33.4722 29.0053 33.4095 28.4413 33.4095 27.804V22.68H35.8055V27.404C35.8055 28.156 35.9468 28.7187 36.2295 29.092C36.5148 29.4653 36.9455 29.652 37.5215 29.652C37.8255 29.652 38.0962 29.6013 38.3335 29.5C38.5735 29.396 38.7748 29.2453 38.9375 29.048C39.1002 28.848 39.2242 28.6027 39.3095 28.312C39.3948 28.0213 39.4375 27.6867 39.4375 27.308V22.68ZM51.6597 22.68L48.2958 31.748C48.1038 32.2733 47.8771 32.7253 47.6158 33.104C47.3571 33.4853 47.0571 33.7987 46.7158 34.044C46.3744 34.292 45.9904 34.4747 45.5638 34.592C45.1371 34.712 44.6611 34.772 44.1358 34.772C43.7304 34.772 43.3091 34.7347 42.8717 34.66V32.724C43.0558 32.7507 43.2251 32.7693 43.3798 32.78C43.5344 32.7933 43.6798 32.8 43.8158 32.8C44.0531 32.8 44.2691 32.78 44.4638 32.74C44.6584 32.7027 44.8358 32.644 44.9958 32.564C45.1558 32.484 45.2984 32.3813 45.4238 32.256C45.5518 32.1307 45.6664 31.9813 45.7678 31.808L42.4358 22.68H44.9558L47.0598 29.636L49.1958 22.68H51.6597Z"/><rect width="40" height="40" x="109" y="7.5" fill="#9F3" rx="20"/><path stroke="#000" stroke-linecap="round" stroke-linejoin="round" stroke-width="2" d="M119 17.5H120.306C120.552 17.5 120.675 17.5 120.774 17.5452C120.861 17.5851 120.935 17.6492 120.987 17.7299C121.046 17.8215 121.063 17.9433 121.098 18.1869L121.571 21.5M121.571 21.5L122.623 29.2314C122.757 30.2125 122.824 30.7031 123.058 31.0723C123.265 31.3977 123.561 31.6564 123.911 31.8174C124.309 32 124.804 32 125.794 32H134.352C135.295 32 135.766 32 136.151 31.8304C136.491 31.6809 136.782 31.4398 136.992 31.1342C137.231 30.7876 137.319 30.3247 137.495 29.3988L138.819 22.4497C138.881 22.1238 138.912 21.9609 138.867 21.8335C138.828 21.7218 138.75 21.6277 138.648 21.568C138.531 21.5 138.365 21.5 138.033 21.5H121.571ZM127 36.5C127 37.0523 126.552 37.5 126 37.5C125.448 37.5 125 37.0523 125 36.5C125 35.9477 125.448 35.5 126 35.5C126.552 35.5 127 35.9477 127 36.5ZM135 36.5C135 37.0523 134.552 37.5 134 37.5C133.448 37.5 133 37.0523 133 36.5C133 35.9477 133.448 35.5 134 35.5C134.552 35.5 135 35.9477 135 36.5Z"/></g><defs><filter id="filter0_d_290_10558" width="157" height="56" x="0" y=".5" color-interpolation-filters="sRGB" filterUnits="userSpaceOnUse"><feFlood flood-opacity="0" result="BackgroundImageFix"/><feColorMatrix in="SourceAlpha" result="hardAlpha" type="matrix" values="0 0 0 0 0 0 0 0 0 0 0 0 0 0 0 0 0 0 127 0"/><feOffset dy="1"/><feGaussianBlur stdDeviation="1"/><feComposite in2="hardAlpha" operator="out"/><feColorMatrix type="matrix" values="0 0 0 0 0.0627451 0 0 0 0 0.0941176 0 0 0 0 0.156863 0 0 0 0.04 0"/><feBlend in2="BackgroundImageFix" mode="normal" result="effect1_dropShadow_290_10558"/><feBlend in="SourceGraphic" in2="effect1_dropShadow_290_10558" mode="normal" result="shape"/></filter></defs></svg>