<svg xmlns="http://www.w3.org/2000/svg" width="157" height="57" fill="none" viewBox="0 0 157 57"><g filter="url(#filter0_d_290_10584)"><rect width="153" height="52" x="2" y="1.5" fill="#93F" rx="26"/><path fill="#fff" d="M28.276 20.06C28.8653 20.06 29.4 20.128 29.88 20.264C30.36 20.3973 30.7693 20.5893 31.108 20.84C31.4493 21.0907 31.712 21.3947 31.896 21.752C32.08 22.1093 32.172 22.5107 32.172 22.956C32.172 23.316 32.1133 23.648 31.996 23.952C31.8787 24.2533 31.7147 24.5187 31.504 24.748C31.296 24.9747 31.048 25.16 30.76 25.304C30.472 25.448 30.1573 25.54 29.816 25.58C30.2293 25.6173 30.6093 25.7133 30.956 25.868C31.3027 26.0227 31.6013 26.224 31.852 26.472C32.1053 26.72 32.3027 27.0093 32.444 27.34C32.5853 27.668 32.656 28.028 32.656 28.42C32.656 28.892 32.552 29.3173 32.344 29.696C32.1387 30.0747 31.8493 30.3987 31.476 30.668C31.1027 30.9347 30.656 31.14 30.136 31.284C29.616 31.428 29.0427 31.5 28.416 31.5H22.552V20.06H28.276ZM28.016 24.816C28.264 24.816 28.4893 24.784 28.692 24.72C28.8973 24.656 29.072 24.5627 29.216 24.44C29.36 24.3173 29.4707 24.1693 29.548 23.996C29.628 23.82 29.668 23.6227 29.668 23.404C29.668 23.1907 29.6293 23.0027 29.552 22.84C29.4773 22.6747 29.3693 22.536 29.228 22.424C29.0867 22.312 28.9133 22.228 28.708 22.172C28.5027 22.1133 28.2707 22.084 28.012 22.084H25.08V24.816H28.016ZM28.236 29.476C28.868 29.476 29.3413 29.3627 29.656 29.136C29.9707 28.9067 30.128 28.5507 30.128 28.068C30.128 27.588 29.9707 27.2347 29.656 27.008C29.3413 26.7787 28.8693 26.664 28.24 26.664H25.08V29.476H28.236ZM35.8695 21.756H33.4255V19.66H35.8695V21.756ZM35.8455 31.5H33.4495V22.68H35.8455V31.5ZM39.2914 21.756H36.8474V19.66H39.2914V21.756ZM39.2674 31.5H36.8714V22.68H39.2674V31.5ZM49.0373 19.66V31.5H46.6413V28.824C46.5426 29.288 46.4039 29.7013 46.2253 30.064C46.0466 30.424 45.8306 30.728 45.5773 30.976C45.3266 31.224 45.0413 31.4133 44.7213 31.544C44.4013 31.6747 44.0519 31.74 43.6733 31.74C43.3239 31.74 42.9933 31.688 42.6813 31.584C42.3693 31.4827 42.0813 31.336 41.8173 31.144C41.5533 30.9493 41.3159 30.7147 41.1053 30.44C40.8946 30.1653 40.7146 29.856 40.5653 29.512C40.4186 29.1653 40.3053 28.7893 40.2253 28.384C40.1479 27.976 40.1093 27.544 40.1093 27.088C40.1093 26.632 40.1479 26.2013 40.2253 25.796C40.3053 25.388 40.4186 25.012 40.5653 24.668C40.7146 24.324 40.8946 24.0147 41.1053 23.74C41.3159 23.4627 41.5533 23.228 41.8173 23.036C42.0813 22.844 42.3693 22.6973 42.6813 22.596C42.9933 22.492 43.3239 22.44 43.6733 22.44C44.0519 22.44 44.4013 22.5053 44.7213 22.636C45.0413 22.764 45.3266 22.952 45.5773 23.2C45.8306 23.448 46.0466 23.7533 46.2253 24.116C46.4039 24.476 46.5426 24.888 46.6413 25.352V19.66H49.0373ZM46.6413 27.088C46.6413 26.6747 46.5946 26.308 46.5013 25.988C46.4106 25.668 46.2759 25.3987 46.0973 25.18C45.9213 24.9587 45.7039 24.7907 45.4453 24.676C45.1893 24.5613 44.8959 24.504 44.5653 24.504C43.8959 24.504 43.3879 24.7227 43.0413 25.16C42.6946 25.5947 42.5213 26.2373 42.5213 27.088C42.5213 27.9387 42.6946 28.5827 43.0413 29.02C43.3879 29.4573 43.8959 29.676 44.5653 29.676C44.8959 29.676 45.1893 29.6187 45.4453 29.504C45.7039 29.3893 45.9213 29.2227 46.0973 29.004C46.2759 28.7827 46.4106 28.512 46.5013 28.192C46.5946 27.8693 46.6413 27.5013 46.6413 27.088Z"/><rect width="40" height="40" x="109" y="7.5" fill="#9F3" rx="20"/><path stroke="#000" stroke-linecap="round" stroke-linejoin="round" stroke-width="2" d="M122 27.5H136M136 27.5L129 20.5M136 27.5L129 34.5"/></g><defs><filter id="filter0_d_290_10584" width="157" height="56" x="0" y=".5" color-interpolation-filters="sRGB" filterUnits="userSpaceOnUse"><feFlood flood-opacity="0" result="BackgroundImageFix"/><feColorMatrix in="SourceAlpha" result="hardAlpha" type="matrix" values="0 0 0 0 0 0 0 0 0 0 0 0 0 0 0 0 0 0 127 0"/><feOffset dy="1"/><feGaussianBlur stdDeviation="1"/><feComposite in2="hardAlpha" operator="out"/><feColorMatrix type="matrix" values="0 0 0 0 0.0627451 0 0 0 0 0.0941176 0 0 0 0 0.156863 0 0 0 0.04 0"/><feBlend in2="BackgroundImageFix" mode="normal" result="effect1_dropShadow_290_10584"/><feBlend in="SourceGraphic" in2="effect1_dropShadow_290_10584" mode="normal" result="shape"/></filter></defs></svg>