<svg width="159" height="59" viewBox="0 0 159 59" fill="none" xmlns="http://www.w3.org/2000/svg">
<g filter="url(#filter0_d_290_10564)">
<rect x="3" y="2.5" width="153" height="52" rx="26" stroke="#9933FF" stroke-width="2" shape-rendering="crispEdges"/>
<path d="M23.432 26.78C23.432 26.18 23.4933 25.6173 23.616 25.092C23.7413 24.564 23.9187 24.08 24.148 23.64C24.3773 23.1973 24.6573 22.8013 24.988 22.452C25.3187 22.1027 25.6893 21.808 26.1 21.568C26.5107 21.3253 26.9587 21.14 27.444 21.012C27.932 20.884 28.448 20.82 28.992 20.82C29.536 20.82 30.0507 20.884 30.536 21.012C31.024 21.14 31.4733 21.3253 31.884 21.568C32.2973 21.808 32.668 22.1027 32.996 22.452C33.3267 22.8013 33.6067 23.1973 33.836 23.64C34.068 24.08 34.2453 24.564 34.368 25.092C34.4933 25.62 34.556 26.1827 34.556 26.78C34.556 27.3773 34.4933 27.94 34.368 28.468C34.2453 28.996 34.068 29.4813 33.836 29.924C33.6067 30.364 33.3267 30.7587 32.996 31.108C32.668 31.4573 32.2973 31.7533 31.884 31.996C31.4733 32.236 31.024 32.42 30.536 32.548C30.0507 32.676 29.536 32.74 28.992 32.74C28.448 32.74 27.932 32.676 27.444 32.548C26.9587 32.42 26.5107 32.236 26.1 31.996C25.6893 31.7533 25.3187 31.4573 24.988 31.108C24.6573 30.7587 24.3773 30.364 24.148 29.924C23.9187 29.4813 23.7413 28.996 23.616 28.468C23.4933 27.94 23.432 27.3773 23.432 26.78ZM25.976 26.78C25.976 27.3907 26.0427 27.932 26.176 28.404C26.312 28.876 26.508 29.2733 26.764 29.596C27.02 29.916 27.3347 30.1587 27.708 30.324C28.084 30.4893 28.512 30.572 28.992 30.572C29.472 30.572 29.8987 30.4893 30.272 30.324C30.648 30.1587 30.964 29.916 31.22 29.596C31.4787 29.2733 31.6747 28.876 31.808 28.404C31.944 27.932 32.012 27.3907 32.012 26.78C32.012 26.1693 31.944 25.628 31.808 25.156C31.6747 24.684 31.4787 24.288 31.22 23.968C30.964 23.6453 30.648 23.4013 30.272 23.236C29.8987 23.0707 29.472 22.988 28.992 22.988C28.512 22.988 28.084 23.0707 27.708 23.236C27.3347 23.4013 27.02 23.6453 26.764 23.968C26.508 24.288 26.312 24.684 26.176 25.156C26.0427 25.628 25.976 26.1693 25.976 26.78ZM36.2706 25.584H35.0826V23.68H36.2706V23.432C36.2706 22.896 36.344 22.424 36.4906 22.016C36.64 21.6053 36.8586 21.2613 37.1466 20.984C37.4346 20.7067 37.7906 20.4973 38.2146 20.356C38.6386 20.212 39.128 20.14 39.6826 20.14C39.9253 20.14 40.1786 20.1533 40.4426 20.18C40.7093 20.204 40.98 20.2427 41.2546 20.296V22.144C40.828 22.0667 40.4493 22.028 40.1186 22.028C39.5826 22.028 39.188 22.1453 38.9346 22.38C38.6813 22.612 38.5546 22.972 38.5546 23.46V23.68H41.2586V25.584H38.6666V32.5H36.2706V25.584ZM42.8644 25.584H41.6764V23.68H42.8644V23.432C42.8644 22.896 42.9377 22.424 43.0844 22.016C43.2337 21.6053 43.4524 21.2613 43.7404 20.984C44.0284 20.7067 44.3844 20.4973 44.8084 20.356C45.2324 20.212 45.7217 20.14 46.2764 20.14C46.519 20.14 46.7724 20.1533 47.0364 20.18C47.303 20.204 47.5737 20.2427 47.8484 20.296V22.144C47.4217 22.0667 47.043 22.028 46.7124 22.028C46.1764 22.028 45.7817 22.1453 45.5284 22.38C45.275 22.612 45.1484 22.972 45.1484 23.46V23.68H47.8524V25.584H45.2604V32.5H42.8644V25.584ZM56.6098 29.512C56.4898 30.0133 56.3018 30.464 56.0458 30.864C55.7924 31.2613 55.4831 31.6 55.1178 31.88C54.7524 32.1573 54.3378 32.3693 53.8738 32.516C53.4124 32.6653 52.9138 32.74 52.3778 32.74C51.9351 32.74 51.5164 32.6893 51.1218 32.588C50.7298 32.4867 50.3684 32.3413 50.0378 32.152C49.7098 31.96 49.4138 31.7267 49.1498 31.452C48.8884 31.1773 48.6671 30.868 48.4858 30.524C48.3044 30.1773 48.1644 29.8 48.0658 29.392C47.9698 28.9813 47.9218 28.544 47.9218 28.08C47.9218 27.6187 47.9698 27.184 48.0658 26.776C48.1618 26.3653 48.2991 25.988 48.4778 25.644C48.6591 25.3 48.8791 24.992 49.1378 24.72C49.3964 24.448 49.6884 24.2173 50.0138 24.028C50.3418 23.8387 50.7004 23.6933 51.0898 23.592C51.4791 23.4907 51.8924 23.44 52.3298 23.44C52.9831 23.44 53.5751 23.5507 54.1058 23.772C54.6364 23.9907 55.0898 24.3027 55.4658 24.708C55.8444 25.1107 56.1364 25.5973 56.3418 26.168C56.5471 26.736 56.6498 27.3693 56.6498 28.068C56.6498 28.1747 56.6471 28.2827 56.6418 28.392C56.6391 28.4987 56.6311 28.608 56.6178 28.72H50.2338C50.2738 29.0507 50.3524 29.3467 50.4698 29.608C50.5871 29.8667 50.7404 30.0867 50.9298 30.268C51.1191 30.4467 51.3404 30.584 51.5938 30.68C51.8498 30.776 52.1338 30.824 52.4458 30.824C53.3711 30.824 54.0084 30.3867 54.3578 29.512H56.6098ZM54.3498 27.24C54.2484 26.6053 54.0284 26.128 53.6898 25.808C53.3538 25.4853 52.9044 25.324 52.3418 25.324C52.0538 25.324 51.7924 25.3667 51.5578 25.452C51.3231 25.5373 51.1178 25.6613 50.9418 25.824C50.7658 25.9867 50.6204 26.188 50.5058 26.428C50.3911 26.6653 50.3098 26.936 50.2618 27.24H54.3498ZM59.8924 32.5H57.4964V23.68H59.8924V26.744C59.9724 26.272 60.0897 25.8467 60.2444 25.468C60.4017 25.0893 60.6004 24.768 60.8404 24.504C61.0804 24.24 61.3657 24.0373 61.6964 23.896C62.027 23.752 62.4084 23.68 62.8404 23.68H63.3684V25.936H62.4404C61.9497 25.936 61.5404 25.9867 61.2124 26.088C60.887 26.1893 60.6257 26.344 60.4284 26.552C60.2337 26.76 60.095 27.024 60.0124 27.344C59.9324 27.6613 59.8924 28.0373 59.8924 28.472V32.5Z" fill="#9933FF"/>
<rect x="110" y="8.5" width="40" height="40" rx="20" fill="#99FF33"/>
<path d="M124.9 27.9444V30.7222M124.9 27.9444V21.2778C124.9 20.3573 125.661 19.6111 126.6 19.6111C127.539 19.6111 128.3 20.3573 128.3 21.2778M124.9 27.9444C124.9 27.024 124.139 26.2778 123.2 26.2778C122.261 26.2778 121.5 27.024 121.5 27.9444V30.1667C121.5 34.769 125.306 38.5 130 38.5C134.694 38.5 138.5 34.769 138.5 30.1667V24.6111C138.5 23.6906 137.739 22.9444 136.8 22.9444C135.861 22.9444 135.1 23.6906 135.1 24.6111M128.3 21.2778V27.3889M128.3 21.2778V20.1667C128.3 19.2462 129.061 18.5 130 18.5C130.939 18.5 131.7 19.2462 131.7 20.1667V21.2778M131.7 21.2778V27.3889M131.7 21.2778C131.7 20.3573 132.461 19.6111 133.4 19.6111C134.339 19.6111 135.1 20.3573 135.1 21.2778V24.6111M135.1 24.6111V27.3889" stroke="black" stroke-width="2" stroke-linecap="round" stroke-linejoin="round"/>
</g>
<defs>
<filter id="filter0_d_290_10564" x="0" y="0.5" width="159" height="58" filterUnits="userSpaceOnUse" color-interpolation-filters="sRGB">
<feFlood flood-opacity="0" result="BackgroundImageFix"/>
<feColorMatrix in="SourceAlpha" type="matrix" values="0 0 0 0 0 0 0 0 0 0 0 0 0 0 0 0 0 0 127 0" result="hardAlpha"/>
<feOffset dy="1"/>
<feGaussianBlur stdDeviation="1"/>
<feComposite in2="hardAlpha" operator="out"/>
<feColorMatrix type="matrix" values="0 0 0 0 0.0627451 0 0 0 0 0.0941176 0 0 0 0 0.156863 0 0 0 0.04 0"/>
<feBlend mode="normal" in2="BackgroundImageFix" result="effect1_dropShadow_290_10564"/>
<feBlend mode="normal" in="SourceGraphic" in2="effect1_dropShadow_290_10564" result="shape"/>
</filter>
</defs>
</svg>
