<svg xmlns="http://www.w3.org/2000/svg" width="184" height="40" fill="none" viewBox="0 0 184 40"><g clip-path="url(#clip0_423_14455)"><path fill="#93F" d="M17.9997 38.0005C8.05847 38.0005 -0.000522614 29.9415 -0.000522614 20.0003C-0.000522614 10.059 8.05847 2 17.9997 2C27.941 2 36 10.059 36 20.0003C36 29.9415 27.941 38.0005 17.9997 38.0005Z"/><path fill="#fff" d="M30.2379 19.6351C30.2379 16.3181 28.9305 13.1917 26.5571 10.8311C24.183 8.47053 21.039 7.17017 17.7039 7.17017C14.3688 7.17017 11.2248 8.46994 8.85136 10.8305C6.47789 13.1911 5.17051 16.3176 5.16992 19.6345V19.7148C5.16992 22.5964 6.15341 25.249 7.80416 27.36C7.36698 25.9877 7.13985 24.544 7.13985 23.0672V19.6345C7.13985 16.8409 8.24251 14.2065 10.2437 12.2159C12.2455 10.2252 14.8945 9.12897 17.7033 9.12897C20.5122 9.12897 23.1618 10.2252 25.1636 12.2159C27.1653 14.2065 28.2674 16.8415 28.2674 19.6399L28.2851 22.899V23.3114C28.2851 25.1688 27.5518 26.9205 26.2208 28.2439C24.8898 29.5678 23.1281 30.2965 21.2609 30.2965C19.3936 30.2965 17.6319 29.5672 16.301 28.2439C14.97 26.9205 14.2366 25.1682 14.2366 23.3108V20.1166C14.2366 18.2722 15.7458 16.7713 17.6001 16.7713C19.4544 16.7713 20.9635 18.2716 20.9635 20.116V22.076L17.603 18.7342C17.3216 18.4539 16.8974 18.3702 16.5299 18.5218C16.1623 18.6734 15.9216 19.0304 15.9216 19.4269V23.7516C15.9216 26.6762 18.314 29.0557 21.255 29.0557C24.196 29.0557 26.5883 26.6762 26.5883 23.7516V19.9201C26.5883 14.9877 22.5535 10.9751 17.5942 10.9751C12.6349 10.9751 8.60003 14.9877 8.60003 19.9183L8.59531 23.1539C8.59531 25.6225 9.31154 27.9866 10.6455 30.015C12.0042 30.9378 13.5552 31.6016 15.226 31.9349C14.6915 31.5667 14.1853 31.149 13.7145 30.6811C11.6838 28.6616 10.5652 25.9883 10.5652 23.1557L10.57 19.9201C10.57 18.0628 11.3033 16.3111 12.6343 14.9877C13.9653 13.6637 15.7269 12.9351 17.5942 12.9351C19.4615 12.9351 21.2231 13.6643 22.5541 14.9877C23.8851 16.3117 24.6184 18.0634 24.6184 19.9207V23.7522C24.6184 25.5965 23.1093 27.0975 21.255 27.0975C19.4007 27.0975 17.8915 25.5971 17.8915 23.7522V21.7922L21.252 25.1339C21.534 25.4142 21.957 25.498 22.3252 25.3464C22.6933 25.1947 22.9334 24.8378 22.9334 24.4413V20.1166C22.9334 17.1919 20.5405 14.8125 17.6001 14.8125C14.6597 14.8125 12.2667 17.1919 12.2667 20.1166V23.3108C12.2667 27.6114 15.3346 31.2121 19.4078 32.0641C20.006 32.1892 20.6261 32.2553 21.2609 32.2553C26.2202 32.2553 30.255 28.2427 30.255 23.3108V22.8931L30.2373 19.634L30.2379 19.6351Z"/></g><path fill="#fff" d="M67.5062 6.92715V33.4437H59.4554L49.439 12.1748V33.4437H44V6.92715H52.5803L62.0672 26.9444V6.92715H67.5062Z"/><path fill="#fff" d="M70.1283 20.4914C70.1283 15.5311 73.7632 12.4437 79.642 12.4437C85.6824 12.4437 89.2545 15.7258 89.2545 21.3166V33.4437H83.8783V28.2146C82.9898 31.7934 80.1536 34 76.2853 34C72.2374 34 69.5449 31.5894 69.5449 27.9642C69.5449 24.0887 72.6054 21.7894 77.7662 21.7894H83.8783V21.3166C83.8783 18.5073 82.2718 16.8199 79.5164 16.8199C76.743 16.8199 75.4865 18.2199 75.4865 20.4914H70.1283ZM83.8783 25.1642H78.3227C76.0968 25.1642 74.921 25.9523 74.921 27.445C74.921 28.9934 76.1776 29.8649 78.4034 29.8649C81.5537 29.8649 83.8783 28.1219 83.8783 25.7669V25.1642Z"/><path fill="#fff" d="M105.205 23.7272V13H110.581V33.4437H105.205V27.2967C104.37 31.6265 101.92 34 98.249 34C93.9858 34 91.6791 30.7828 91.6791 24.8768V13H97.0553V23.9497C97.0553 27.4358 98.3208 29.1603 100.906 29.1603C103.643 29.1603 105.205 27.2318 105.205 23.7272Z"/><path fill="#fff" d="M126 33.2861C124.33 33.7589 122.858 33.9907 121.566 33.9907C117.213 33.9907 114.933 31.3298 114.933 26.1285V17.4132H112.456V13H114.933V8.29007H120.309V13H126V17.4132H120.309V26.1377C120.309 28.4834 121.108 29.5219 122.939 29.5219C123.675 29.5219 124.653 29.355 126 29.0026V33.2861Z"/><path fill="#fff" d="M133.698 6V10.8583H128.214V6H133.698ZM133.644 13V33.4437H128.268V13H133.644Z"/><path fill="#fff" d="M141.622 6V33.4437H136.245V6H141.622Z"/><path fill="#fff" d="M157.659 23.7272V13H163.035V33.4437H157.659V27.2967C156.824 31.6265 154.374 34 150.703 34C146.44 34 144.133 30.7828 144.133 24.8768V13H149.509V23.9497C149.509 27.4358 150.775 29.1603 153.359 29.1603C156.097 29.1603 157.659 27.2318 157.659 23.7272Z"/><path fill="#fff" d="M174.208 12.4437C180.033 12.4437 183.399 15.151 183.399 19.5642H178.094C178.094 17.6636 176.775 16.5046 174.325 16.5046C172.162 16.5046 170.69 17.3854 170.69 18.702C170.69 20.3152 172.646 20.6397 174.818 21.0199L176.138 21.2609C179.324 21.8172 184 22.6424 184 27.5285C184 31.645 180.661 34 174.666 34C168.356 34 165.026 31.3947 165.026 26.7219H170.331C170.331 28.7801 171.722 29.902 174.621 29.902C177.161 29.902 178.705 29.0583 178.705 27.6119C178.705 25.8689 176.784 25.5166 174.244 25.053L172.925 24.8119C170.008 24.2834 165.394 23.4583 165.394 18.804C165.394 14.8728 168.697 12.4437 174.208 12.4437Z"/><defs><clipPath id="clip0_423_14455"><rect width="36" height="36" fill="#fff" transform="matrix(-1 0 0 1 36 2)"/></clipPath></defs></svg>